<?xml version="1.0" encoding="utf-8"?>
<!-- Generator: Adobe Illustrator 19.0.1, SVG Export Plug-In . SVG Version: 6.00 Build 0)  -->
<svg version="1.1" id="Layer_1" xmlns="http://www.w3.org/2000/svg" xmlns:xlink="http://www.w3.org/1999/xlink" x="0px" y="0px"
	 viewBox="0 0 512.3 485.2" enable-background="new 0 0 512.3 485.2" xml:space="preserve">
<g>
	<defs>
		<rect id="SVGID_1_" width="512.3" height="485.2"/>
	</defs>
	<clipPath id="SVGID_2_">
		<use xlink:href="#SVGID_1_"  overflow="visible"/>
	</clipPath>
	<path clip-path="url(#SVGID_2_)" fill="#1B2A39" d="M190.1,323.8c53.3-0.6,105.8-7.3,157.5-20.5c9.7-2.5,18.1,2.6,20.3,11.8
		c2,8.4-3.4,16.9-12.6,19.2c-60.9,15.4-122.6,23.3-185.4,20c-38.5-2-76.4-7.8-112.4-22.8c-15.1-6.3-29.3-14.3-40.9-26.1
		C-2.1,286.4-5.1,263,8,239.6c9.1-16.2,22.5-28.4,37.3-39.1c26.4-19.1,55.7-32.2,86.5-42.2c8.6-2.8,17.4,1.7,20.2,9.9
		c2.9,8.6-1.3,17.3-10.2,20.4c-21.2,7.4-42.2,15.2-61.9,26c-12.3,6.7-24,14.3-33.9,24.4c-20.5,20.8-18.5,41.2,5.8,57.1
		c17,11.1,36.2,16.4,55.8,20.4C134.8,322.1,162.4,324,190.1,323.8"/>
	<path clip-path="url(#SVGID_2_)" fill="#1B2A39" d="M433.5,388.5c0.2,13.6-1.4,27-7.3,39.4c-10.4,21.7-28.6,30.7-51.9,30.2
		c-20.9-0.4-40-7.6-58.5-16.9c-24.2-12.1-46.1-27.9-66.4-45.7c-7.2-6.3-8-15.8-2.1-22.7c5.8-6.8,15.6-7.7,22.8-1.6
		c16.2,13.8,32.9,27.2,51.2,38.1c13,7.8,26.5,14.6,41.6,17.3c24.3,4.4,39.8-7.9,41.4-32.6c1.2-19.3-2.8-37.7-8.7-55.9
		c-15-45.4-38.8-86.2-66.2-125.1c-19.5-27.7-40.9-53.8-64.7-78c-5.6-5.7-6.7-12.2-3.6-18.7c3-6.2,9.2-9.6,16.4-8.9
		c3.6,0.4,6.7,1.9,9.2,4.5c55.9,57.7,101.8,122.1,130.3,197.8C426.5,335.1,433.2,361.2,433.5,388.5"/>
	<path clip-path="url(#SVGID_2_)" fill="#1B2A39" d="M400.2,90.1c0.3,14.6-2.8,20.6-10.1,23.4c-10.7,4.1-21.7-3.6-21.8-15.3
		c-0.1-13-0.8-26-4-38.7c-1-4.2-2.4-8.3-4.4-12.1c-6.7-13.3-18.3-18.6-32.8-15.3c-10.6,2.4-19.7,7.8-28.3,14.2
		c-20,14.9-36,33.7-50.3,53.8c-41.8,58.7-71.1,123.2-90.2,192.6c-2.5,9-8.5,13.6-16.9,13.1c-7.3-0.4-13.2-5.8-14.7-13.3
		c-0.5-2.4-0.1-4.6,0.5-6.9c21.3-78.5,54.7-151.1,106-214.8c18.1-22.6,38.5-42.9,63.7-57.8C308,6.4,319.9,1.5,333.1,0.3
		c17.9-1.7,32.7,4.2,44.2,18.1c11.2,13.4,16.5,29.5,19.8,46.3C399,74.1,400,83.7,400.2,90.1"/>
	<path clip-path="url(#SVGID_2_)" fill="#1B2A39" d="M512.3,221c-0.1,9.2-5.1,21-12.6,31.9c-12.3,17.8-28.7,30.9-47.2,41.6
		c-7.6,4.4-16.9,1.6-21.3-5.8c-4.4-7.4-2.4-16.5,4.9-21.6c6.6-4.5,13.4-8.7,19.9-13.3c7.3-5.1,13.7-11.1,18.7-18.5
		c8.9-13.4,7.5-27-4-38.4c-10.3-10.2-23.3-15.8-36.8-20.3c-24.8-8.3-50.5-11.8-76.4-14c-9.2-0.8-15.9-8.3-15.2-17.1
		c0.6-8.7,8-15.6,16.9-14.8c37.2,3.2,73.5,10,107.1,27.1c12.7,6.4,24.3,14.5,33.4,25.7C507.6,193.1,512.4,204,512.3,221"/>
	<path clip-path="url(#SVGID_2_)" fill="#1B2A39" d="M202.9,242.4c0.3-31.9,22.1-53.3,54.1-53.1c31.3,0.2,52.8,22.4,52.5,54.2
		c-0.3,31.3-22.5,52.7-54.3,52.3C224.2,295.5,202.6,273.4,202.9,242.4"/>
	<path clip-path="url(#SVGID_2_)" fill="#1B2A39" d="M176,485.1c-17.2,0.6-31.2-5.9-41.8-19.4c-10.7-13.6-15.7-29.5-18.8-46.2
		c-2.3-12-3.3-24.1-3.2-36.3c0.1-9.7,6.9-16.8,16.1-16.7c9.1,0.1,15.9,7.2,15.9,16.9c0.1,15.2,0.7,30.3,5,45
		c7.1,24.3,23.8,31.5,46.5,20.2c13-6.5,23.7-16,34.1-25.8c3-2.8,6.1-5,10.4-5.5c7-0.7,13,2.3,16.2,8.3c3.2,5.9,2.7,13.3-2.3,18.1
		c-19.6,19.1-41.2,34.7-68.7,40.3c-0.8,0.2-1.6,0.4-2.5,0.4C180.7,484.7,178.3,484.9,176,485.1"/>
	<path clip-path="url(#SVGID_2_)" fill="#1B2A39" d="M78.3,100c0.2-13.8,1.8-26.9,7.1-39.4c10.1-23.7,32.5-36.3,59.4-33.7
		c20.4,2,39.1,9,56.8,18.8c8.1,4.4,10.7,13.6,6.6,21.5c-4.1,7.9-13.4,10.8-21.8,6.6c-11.1-5.6-22.1-11.5-34.3-14.5
		c-5.9-1.4-11.8-2.3-17.8-1.2c-13.1,2.5-21.8,12.3-24,26.6c-2.3,15,0.4,29.5,3.5,44c0.4,1.9,1,3.9,1.3,5.8c1.6,9-3.5,17.3-11.8,19.2
		c-9,2-17-2.8-19.4-12C80.3,127.8,78.5,113.8,78.3,100"/>
	<path clip-path="url(#SVGID_2_)" fill="#EE2E24" d="M282.9,242.3c0.2,12.8-13.7,26.9-26.6,27c-12.5,0.1-26.5-13.7-26.8-26.4
		c-0.3-12.7,13.9-27,26.7-27C268.7,215.8,282.7,229.6,282.9,242.3"/>
</g>
</svg>
