<?xml version="1.0" encoding="utf-8"?>
<!-- Generator: Adobe Illustrator 19.0.1, SVG Export Plug-In . SVG Version: 6.00 Build 0)  -->
<svg version="1.1" id="Layer_1" xmlns="http://www.w3.org/2000/svg" xmlns:xlink="http://www.w3.org/1999/xlink" x="0px" y="0px"
	 viewBox="0 0 512.1 416" enable-background="new 0 0 512.1 416" xml:space="preserve">
<g>
	<defs>
		<rect id="SVGID_1_" width="512.1" height="416"/>
	</defs>
	<clipPath id="SVGID_2_">
		<use xlink:href="#SVGID_1_"  overflow="visible"/>
	</clipPath>
	<path clip-path="url(#SVGID_2_)" fill="#FF2A2A" d="M303.8,352c-10.6,0-21.1,0-31.7,0c-1.2-0.8-1.5-2.1-2-3.3
		c-3.3-8.2-7.4-11.1-16.3-11.2c-18.2-0.1-36.3,0-54.5,0c-1.7,0-3.3-0.1-5,0c-4.1,0.2-6.4-1.5-7.8-5.4c-5-13.6-14-24.2-25.9-32.1
		c-24.3-16.1-53.7-12.9-74.6,7.5c-7.4,7.3-13.2,15.4-16.8,25.1c-1.3,3.5-3.5,5-7.1,5c-8.5,0-17,0.1-25.5-0.1c-5-0.1-6.5-1.4-5.9-6.5
		c1-9.6,0.3-19.3,1.5-28.9c1-8.3,0.8-16.6,1.1-24.9c0.6-18.5,1.7-36.9,2.5-55.3c0.8-17.6,1-35.2,2.7-52.8c0.3-3,0.2-6,0.1-9
		c-0.3-6-3.2-10.4-8.5-13.2c-1.5-0.8-3.1-1.3-3.9-2.9c0.3-5.5,0.7-11,1-16.5c2.1-1.4,4.5-0.9,6.8-0.9c40.2,0,80.3,0,120.5,0
		c2.8,0,5.7,0.1,8.5-0.5c6.7-1.5,11.4-7.2,11.4-13.9c0-6.7-4.8-12.5-11.4-14c-2.8-0.6-5.6-0.5-8.5-0.5c-39,0-78,0-117,0
		c-2.9,0-6.1,0.7-8.6-1.5c0.2-5.3,0.4-10.6,0.6-15.9c2-2.1,4.6-1.6,7.1-1.6c12.7-0.1,25.3,0,38,0c1.8,0,3.7,0,5.5-0.1
		c8.4-0.6,14.4-6.5,14.5-14.3c0.1-7.7-5.9-13.9-14.2-14.5c-1.8-0.1-3.7-0.1-5.5-0.1c-12.2,0-24.3,0-36.5,0c-2.4,0-5.1,0.5-7-1.6
		c0.3-5.2,0.6-10.5,0.9-15.7c2.4-2.5,5.6-1.7,8.5-1.7c43.8-0.1,87.6,0,131.4,0c56.8,0,113.6,0,170.4,0c11.1,0,11.3,0.6,10.6,11.7
		c-0.9,14.1-1.6,28.2-2.4,42.4c-0.8,15.5-1.8,30.9-2.7,46.3c-0.8,14.1-1.5,28.2-2.4,42.4c-1,15.6-1.7,31.2-2.7,46.8
		c-0.8,12.5-1.4,24.9-2.1,37.4c-0.4,6.9,2.8,12.2,9.4,15.1c1.2,0.5,2.5,1,3.5,1.8c3.2,4.8,0.2,9.8,0.3,14.7c-0.8,2.4-2.9,3-4.9,3.8
		c-24.8,10-39.6,28.1-43.8,54.7C305.1,349.1,305.4,350.9,303.8,352"/>
	<path clip-path="url(#SVGID_2_)" fill="#1B2A39" d="M28.8,96c43.4,0,86.9,0,130.3,0c12.1,0,20,10.9,15.8,21.7
		c-2.3,6-8,10.2-14.6,10.2c-42.9,0.1-85.9,0-128.8,0c-1.5,0-3-0.4-4.4-0.6c-7.1-3-11.3-8.1-11-16C16.4,103.1,21.5,98.6,28.8,96"/>
	<path clip-path="url(#SVGID_2_)" fill="#1B2A39" d="M31.1,47.8C46.4,47.9,61.8,48,77.1,48c11.6,0,18.9,6.1,18.9,15.9
		C96.1,73.7,88.7,80,77.3,80c-16,0-32,0.1-47.9,0.1c-11.3-4.4-15.9-12.5-12.3-21.8C19.5,51.9,24.6,48.8,31.1,47.8"/>
	<path clip-path="url(#SVGID_2_)" fill="#1B2A39" d="M512.1,194.3c0-5.1-1.4-9.4-4.3-13.5c-25.9-36.1-51.7-72.2-77.5-108.4
		c-2.9-4.1-6.6-6.9-11.4-8.3c-10.8-3.3-21.5-6.9-32.3-10.1c-2.9-0.9-3.9-2.2-3.6-5.2c0.5-5,0.8-10,0.9-15C384.5,15.9,369,0,351,0
		c-35.2,0-70.3,0-105.5,0C169.4,0,93.3,0,17.1,0C7.3,0,0.2,6.6,0,15.7C-0.2,25,7,31.9,17,32c5,0.1,10,0.1,15,0.2
		c0.5-0.1,1-0.1,1.5-0.1c104.8,0,209.7,0,314.5-0.1c3.3,0,4.2,0.9,3.9,4.2c-1,14.6-1.9,29.3-2.7,43.9c-3.3,58.7-6.6,117.4-10,176.1
		c-0.6,10.7,4.1,16.9,14.7,19.1c2.4,1.5,4.8,1.1,7.2,0.1c6.5-2.7,10.5-7.5,11.2-14.7c1.7-15.9,2.1-31.9,3-47.8
		c0.8-14.6,1.6-29.2,2.4-43.9c1.2-23.3,2.9-46.5,3.8-69.8c0.1-2.7,0.5-5.3,0.9-7.9c0.2-1.3,0.5-3,2.3-2.7c4.3,0.7,8.6,1.8,12.1,4.3
		c2.7,1.9,1.6,5.2,1.6,8c0.1,34.5,0.5,69-0.2,103.4c-0.4,20.3,17.1,38.2,37.2,37.2c12.5-0.6,25-0.1,37.5-0.1c3.7,0,5.6,1.1,5.5,5.1
		c-0.1,6.3-0.1,12.7,0,19c0.1,3.7-1.6,5.1-5.2,4.9c-3-0.1-6-0.1-9,0c-10.2,0.4-17.6,7.7-17.7,17.3c-0.1,9.7,7.5,17.2,17.9,17.6
		c3,0.1,6,0.1,9,0c3.6-0.1,5.1,1.6,5,5.1c-0.1,6.2-0.2,12.3,0,18.5c0.1,4.2-1.8,5.5-5.7,5.4c-12.2-0.1-24.3-0.1-36.5,0
		c-3.8,0-6.2-1.3-7.6-5c-4.1-10.6-10.8-19.5-19.5-26.8c-12.8-10.8-27.5-16.9-44.5-16.1c-4.1,0.2-8.4,0-11.8,3.2
		c-0.8,0.3-1.5,0.7-2.3,1c-27.4,9.3-45.1,32.3-46.9,61.2c0.1,0.8,0.1,1.7,0.2,2.5c1.6,32.5,31.9,61.6,64.1,61.5
		c25.1,0,50.4-18.2,59.8-43.4c1.5-3.9,3.3-4.7,7.1-4.7c14.3,0.2,28.7,0.1,43,0.1c18.9,0,34-14.9,34-33.7
		C512,287.6,512,241,512.1,194.3 M367.6,384c-19.7,0-31.7-12.4-31.6-32.5c0.1-19.4,12.5-31.6,32.1-31.5
		c19.9,0.1,31.9,12.3,31.8,32.3C399.9,372.1,387.7,384,367.6,384 M477.4,208c-14.3,0-28.6-0.1-43,0.1c-3.6,0-2.4-2.4-2.4-4.1
		c-0.1-20.8,0-41.6,0-62.4c0-3.3,0-6.7,0-11.5c5.3,7.4,9.8,13.7,14.3,20c10.4,14.6,20.7,29.3,31.4,43.8c3.1,4.2,2,8.5,2.2,12.8
		C480.1,208.4,478.5,208,477.4,208"/>
	<path clip-path="url(#SVGID_2_)" fill="#1B2A39" d="M253.7,336c-20,0-40-0.1-60,0.1c-2.9,0-4.4-0.6-5.4-3.6
		c-3.6-10.8-10.1-19.9-18.6-27.4c-14.1-12.4-30.4-19.5-49.5-16.3C94.6,293,77.6,308.3,67.7,332c-0.9,2.1-1.2,4.2-4.5,4.1
		c-9.3-0.3-18.7-0.2-28,0c-2.8,0-3.3-0.9-3.2-3.4c0.5-9,0.8-18,1.3-27c2.2-47.4,4.4-94.9,6.6-142.3c0.5-11.1-3.1-16-13.8-19.5
		c-12.3,0.6-17.6,6-18.2,18.3c-0.8,17.8-1.7,35.6-2.5,53.4c-1.8,39.6-3.7,79.2-5.3,118.8c-0.7,17.9,14.9,33.5,33,33.6
		c9.5,0,19,0.1,28.5-0.1c3.4-0.1,5.1,0.7,6.4,4.3c9.3,25.2,34.3,43.5,59,43.8c25.7,0.3,51.3-17.7,60.9-43.2c1.6-4.2,3.5-4.9,7.5-4.9
		c19.5,0.2,39,0.1,58.5,0.1c11.2,0,16.9-5,18.4-16C270.7,341,264.8,336,253.7,336 M127.6,384c-19.7,0-31.7-12.4-31.6-32.5
		c0.1-19.4,12.5-31.6,32.1-31.5c19.9,0.1,31.9,12.3,31.9,32.3C159.9,372.1,147.7,384,127.6,384"/>
</g>
</svg>
