<?xml version="1.0" encoding="utf-8"?>
<!-- Generator: Adobe Illustrator 19.0.1, SVG Export Plug-In . SVG Version: 6.00 Build 0)  -->
<svg version="1.1" id="Layer_1" xmlns="http://www.w3.org/2000/svg" xmlns:xlink="http://www.w3.org/1999/xlink" x="0px" y="0px"
	 viewBox="0 0 480 512" enable-background="new 0 0 480 512" xml:space="preserve">
<g>
	<defs>
		<rect id="SVGID_1_" width="480" height="512"/>
	</defs>
	<clipPath id="SVGID_2_">
		<use xlink:href="#SVGID_1_"  overflow="visible"/>
	</clipPath>
	<path clip-path="url(#SVGID_2_)" fill="#FF2A2A" d="M271.8,192c-7,0-14,0-21,0.1c-2.3-0.3-2.8-2.2-3.5-3.8
		c-12.5-27.8-35.4-40.3-64.5-42.6c-22.5-1.8-43.3,3.6-61.1,18.5c-3.2,2.7-5.8,5.9-8.4,9.2c-2.1,2.7-4.7,4.1-8.2,4
		c-4.3-0.1-8.7,0.3-13-0.3c-7.9-1.1-12.2-5.5-13.4-13.3c-0.4-2.3-0.3-4.7-0.3-7c0-35.2,0-70.3,0-105.5c0-1.2,0-2.3,0-3.5
		c0.4-11.7,5.7-17,17.3-17.4c1.8-0.1,3.7,0,5.5,0c108.5,0,217,0,325.5,0c18.5,0,22.7,4.2,22.7,22.6c0,34,0,68,0,102
		c0,1.8,0,3.7,0,5.5c-0.5,11.1-5.8,16.6-16.9,16.8c-14.5,0.3-29,0.3-43.5,0c-7.5-0.2-13.3,2.2-18.6,7.6
		c-14.4,14.8-29.1,29.3-43.8,43.9c-1.8,1.8-3.7,4.9-6.5,3.7c-2.5-1.1-1.7-4.4-1.7-6.9c-0.1-10.3,0-20.7-0.1-31
		c-0.1-11.7-5.5-17.1-17.2-17.2c-3.7,0-7.3,0-11,0c-8.1-0.1-13.8,3.3-16.4,11.2C273.5,190,273.1,191.3,271.8,192"/>
	<path clip-path="url(#SVGID_2_)" fill="#1B2A39" d="M176.1,444c11.2-22.5,22.1-44.1,32.9-65.8c5.3-10.5,10.5-21.1,15.9-31.6
		c4.8-9.5,12.4-12.7,22.3-9.3c30.4,10.2,60.8,20.4,91.1,30.7c10.5,3.5,13.7,8,13.7,19.1c0,36.2,0,72.3,0,108.5
		c0,8.8-6.1,15.6-14.3,16.4c-7.9,0.8-15.3-4.3-17.2-12.1c-0.5-1.9-0.5-4-0.5-5.9c0-31.3-0.1-62.7,0.1-94c0-3.4-1-4.8-4.2-5.9
		c-21-6.8-42-13.8-62.9-20.9c-3.6-1.2-5.3-0.8-7.2,2.9c-18.1,36.6-36.5,73.1-54.8,109.7c-4.5,8.9-12.7,12.6-20.9,9.3
		c-4.6-1.8-7.3-5.5-9.5-9.8c-18.1-36.3-36.3-72.5-54.3-108.8c-1.9-3.8-3.4-4.6-7.4-3.2c-20.9,7.2-41.8,14.2-62.9,21
		c-3.3,1.1-4.2,2.5-4.2,5.9c0.1,31.8,0.1,63.7,0.1,95.5c0,7.4-3.9,13.1-10.3,15.6c-6.3,2.4-13.2,0.6-17.7-4.5C1.3,503.5,0,500,0,496
		c0-37.3-0.1-74.7,0-112c0-7.2,3.7-12.6,10.5-14.9c32.4-11,64.9-21.8,97.4-32.5c7.9-2.6,15.5,1.8,19.7,10.3
		c15.6,31.5,31.4,63,47,94.6C175,442.1,175.3,442.6,176.1,444"/>
	<path clip-path="url(#SVGID_2_)" fill="#1B2A39" d="M480,48.5c0-25-23.4-48.4-48.4-48.5c-111.7,0-223.3,0-335,0
		C71.3,0,48.1,23.4,48,48.8c0,36.5,0,73,0,109.5c0,24.1,19.8,46.9,43.7,49.3c6,0.6,5.3,2.8,4.9,6.9c-3.1,37.4,6.3,71.1,32.1,99
		c27.8,30.1,65.2,30,93.9,0.8c11-11.2,18.9-24.4,24.4-39.1c10.3-27.3,12.2-55,3.7-83.2c-4.8-11-10.7-21.4-20.1-29.3
		c-19-16-41.4-20.6-65.4-18.2c-19.1,1.9-36.6,8.6-49.1,23.6c-5.4,6.4-10.7,8.3-18.5,8c-13.3-0.5-17.7-4.5-17.7-17.8
		c0-36.3,0-72.6,0-109C80,36.5,84.6,32,97.5,32c111.1,0,222.3,0,333.4,0c12.5,0,17.1,4.6,17.1,17.2c0,36.7,0,73.3,0,110
		c0,12-4.7,16.7-16.6,16.8c-15.2,0-30.3,0.1-45.5,0c-5.9-0.1-10.6,1.9-14.7,6.1c-15.7,15.9-31.5,31.6-47.4,47.4
		c-1.1,1.1-1.8,2.8-3.9,2.8c0-13.3,0.1-26.4,0-39.6c-0.1-9.9-6.8-16.5-16.7-16.6c-4.3,0-8.7,0-13,0c-11.1,0-16.9,5-18.5,16
		c0.8,7.9,4.6,13.7,12.5,15.4c3.3,0.7,3.7,2,3.7,4.8c-0.1,19.2,0.1,38.3-0.1,57.5c-0.1,7.8,2.6,13.7,9.8,17c6.6,3,12.9,1.2,19.3-5.2
		c23.6-23.6,47.2-47.1,70.7-70.7c2-2.1,4-2.9,6.9-2.9c12.5,0.2,25,0.1,37.5,0c24.3-0.1,47.8-23.7,47.9-48
		C480.1,122.8,480.1,85.6,480,48.5 M130.1,206c3-15.6,12.1-25.5,28.2-28.4c11.6-2.1,23.2-2.3,34.8-0.1c18.1,3.5,27.5,14.3,29.8,33.8
		c0.6,5.3,1.3,10.6,1.1,16c-0.2,16.8-2.6,33.1-10,48.5c-3.3,6.8-7.5,12.9-13.1,18.1c-14.9,13.6-35.3,13.5-50-0.3
		c-7.9-7.3-13.1-16.4-16.4-26.4C127.7,247.1,126.1,226.7,130.1,206"/>
</g>
</svg>
