<?xml version="1.0" encoding="utf-8"?>
<!-- Generator: Adobe Illustrator 19.0.1, SVG Export Plug-In . SVG Version: 6.00 Build 0)  -->
<svg version="1.1" id="Layer_1" xmlns="http://www.w3.org/2000/svg" xmlns:xlink="http://www.w3.org/1999/xlink" x="0px" y="0px"
	 viewBox="0 0 480.2 480" enable-background="new 0 0 480.2 480" xml:space="preserve">
<g>
	<defs>
		<rect id="SVGID_1_" width="480.2" height="480"/>
	</defs>
	<clipPath id="SVGID_2_">
		<use xlink:href="#SVGID_1_"  overflow="visible"/>
	</clipPath>
	<path clip-path="url(#SVGID_2_)" fill="#1B2A39" d="M455.1,114.6c-22,11-44,22-66,33c-1.5,0.8-3.1,1.4-5.6,2.6
		c1.3-2.3,2.1-3.7,2.9-5.1c10.8-19.1,15.6-39.3,12.9-61.4c-6.3-50.5-55.9-89.2-106.4-83C231,8.2,180.8,81.5,224.7,149.3
		c21.3,33,43.5,65.4,65.3,98c7.7,11.6,20.8,11.5,28.5-0.1c8.7-13,17.4-26,26-39.1c1.8-2.8,4-4.7,7-6.1c19.9-9.9,39.8-19.9,59.7-29.8
		c12.1-6.1,24.3-12.1,37-18.4v3.4c0,76,0,152,0.1,228c0,3.4-1.5,4.5-4.2,5.6c-27.9,11.1-55.8,22.2-83.8,33.4
		c-13.2,5.3-26.4,10.6-40.2,16.1c0-2,0-3.5,0-4.9c0-42.5,0-85,0-127.5c0-2.5,0.1-5.1-0.4-7.5c-1.8-8-9.4-13.3-17.5-12.4
		c-8.1,0.9-14.1,7.8-14.1,16.6c0,43.3,0,86.7,0,130c0,1.7,0,3.5,0,5.2c-1-0.1-1.3,0-1.6-0.1c-41-16.4-82-32.9-123.1-49.1
		c-3.4-1.3-3.4-3.3-3.4-6.1c0-44.2,0-88.3,0-132.5c0-32.5,0-65,0-98.1c3,1.5,5.2,2.6,7.4,3.7c9.2,4.6,18.4,2.1,22.7-6.2
		c4.5-8.5,1.1-17.6-8.3-22.4c-9.6-4.9-19.2-9.8-28.8-14.7c-5.9-3-11.6-3-17.7,0C94,135.2,52.4,156,10.7,176.7
		c-7.2,3.6-10.6,8.9-10.6,17C0.3,282.9,0.5,372.1,0,461.2c-0.1,13.8,12.5,22.9,25.9,16c37.9-19.7,76.3-38.3,114.4-57.5
		c3.3-1.6,6-1.8,9.4-0.4c49.3,19.9,98.6,39.6,147.9,59.4c4.3,1.7,8.7,1.8,13.1,0.1c52.5-21.1,105.1-42.1,157.6-63.2
		c8.8-3.5,11.9-8.3,11.9-18c0-89.2,0-178.3,0-267.5C480.2,115.1,468.6,107.8,455.1,114.6 M125.7,391.3
		c-30.9,15.3-61.8,30.8-92.8,46.3c-1.1-1.4-0.6-2.9-0.6-4.3c0-75.8,0-151.6-0.1-227.5c0-2.4,0-4.2,2.7-5.6
		c30.7-15.2,61.3-30.5,91.9-45.8c0.3-0.1,0.6-0.1,1.4-0.2c0,54.8,0,109.3,0,163.8c0,22.7,0,45.3,0,68
		C128.2,388.3,128.4,390,125.7,391.3"/>
	<path clip-path="url(#SVGID_2_)" fill="#EE2E24" d="M355.6,55.6c-17.4-21.8-40.8-27-66.9-22c-48.6,9.4-59.1,65-39,95.6
		c17.3,26.3,34.9,52.4,52.3,78.6c1.6,2.5,2.4,3,4.3,0.2c17.5-26.5,35.3-52.9,52.7-79.5c6.5-9.8,9.3-20.9,9.2-32.7
		C368.3,80.4,364.1,66.1,355.6,55.6 M304.7,127.9c-17.4,0.1-32.5-14.7-32.5-31.9c0-17.1,14.7-32,31.7-32.1
		c17.3-0.1,32.2,14.8,32.2,32.1C336.3,112.7,321.4,127.8,304.7,127.9"/>
</g>
</svg>
