<?xml version="1.0" encoding="utf-8"?>
<!-- Generator: Adobe Illustrator 19.0.1, SVG Export Plug-In . SVG Version: 6.00 Build 0)  -->
<svg version="1.1" id="Layer_1" xmlns="http://www.w3.org/2000/svg" xmlns:xlink="http://www.w3.org/1999/xlink" x="0px" y="0px"
	 viewBox="0 0 512 512" enable-background="new 0 0 512 512" xml:space="preserve">
<g>
	<defs>
		<rect id="SVGID_1_" width="512" height="512"/>
	</defs>
	<clipPath id="SVGID_2_">
		<use xlink:href="#SVGID_1_"  overflow="visible"/>
	</clipPath>
	<path clip-path="url(#SVGID_2_)" fill="#FF2A2A" d="M13.6,136l5-56c0,0,15,14,34-7s30-54,30-54h349c0,0-9,32,11,45s56,23,56,23v102
		c0,0-53,0-59,22s-7,45-7,45h-159c0,0-5-26-23-29s-44,7-47,19s-52,10-52,10h-75c0,0,11-32-1-45s-56-11-56-11L13.6,136z"/>
	<path clip-path="url(#SVGID_2_)" fill="#1B2A39" d="M213.4,132.7V114h16v-41h42.3c10.5,0,18.9,2.8,25.2,8.4
		c6.4,5.5,9.6,12.6,9.6,21.4c0,8.7-3.2,15.8-9.6,21.4c-6.3,5.6-14.7,8.4-25.2,8.4h-14.2v5.1h28.2v14h-28.2V165h-28.1v-13.1h-16v-14
		h16v-5.1H213.4z M256.9,114h10c7.2,0,11.8-3.3,11.8-9.2c0-5.6-4.6-8.9-11.8-8.9h-10V114z"/>
	<path clip-path="url(#SVGID_2_)" fill="#1B2A39" d="M512,28v217c-0.3,0.6-0.7,1.1-0.9,1.7c-5.2,15.8-18.4,25.3-34.9,25.3
		c-27.8,0-55.6,0-83.4,0h-22.5c1,2,1.6,3.5,2.4,5c5,9.7,10.3,19.4,15.1,29.2c8,16.3,12.4,33.6,10.8,51.7c-2.6,29.2-6,58.3-9.1,87.4
		c-1.2,11.4-2.4,22.8-3.6,34.8c4.5,0,8.6,0,12.8,0c9,0,15.5,5,17.2,12.9c1.6,7.6-2.4,14.4-10.6,18.2c-0.4,0.2-0.8,0.6-1.2,0.9H220
		c-1-0.5-2-1.1-3-1.6c-6.5-3.4-10-10.1-8.9-16.9c1.1-6.8,6.7-12.2,13.8-13.3c1-0.2,2.1-0.3,3.4-0.4c-12.1-21-30.5-38.1-32.9-63.7
		c-2,0-3.5-0.1-5,0c-17.9,1.6-35.2-12.9-41.2-28.5c-2.7-7.1-3.3-14.3-0.4-21.4c1.5-3.7,0.9-5.5-2.2-8.2
		c-11.2-9.8-18.4-21.7-14.6-37.4c4.4-18.2,22.5-32.3,41.3-32.4c7.1,0,14.2,0,21.3,0v-16h-5.4c-50.5,0-100.9-0.1-151.4,0.1
		c-9.1,0-16.5-3.2-23.2-8.9C5.9,258.3,2.5,252,0,245V28C4.6,14,14,4.7,28,0h456C498,4.7,507.4,14,512,28 M32.6,96.7v78.8
		c17.5,0.7,32.2,7.4,44.3,19.6c12.3,12.2,18.9,27.1,19.6,44.5h96.9c1.4-2.7,2.6-5.5,4.2-8c10.9-17.3,26.3-24.9,47.1-24.1
		c20.7,0.8,34.5,10.5,43.5,28.2c1.7,3.3,3.3,4.2,6.7,4.2c38.5-0.1,77-0.1,115.5-0.1c1.6,0,3.3-0.1,5.1-0.2
		c0.7-17.5,7.4-32.2,19.5-44.3c12.2-12.3,27-19,44.4-19.7V96.4c-17.7-0.7-32.3-7.5-44.4-19.7c-12.1-12.2-18.7-26.9-19.4-44.1H96.6
		C95.7,64.3,69.1,94.9,32.6,96.7 M353.4,480c0.3-1.2,0.4-1.9,0.5-2.5c4-37.4,7.7-74.8,12-112.2c1.8-15.3,0.7-29.9-6.4-43.7
		c-6.5-12.7-13.2-25.4-19.6-38.2c-1.8-3.5-3.2-7.2-4.8-11.1h-40.3c0.6,5.4,1.1,10.4,1.7,15.5c2.5,20.7,5,41.3,7.4,62
		c1,9.3-5.2,17.2-13.9,18.2c-8.7,1-16.6-5-17.8-13.9c-1.9-14.4-3.4-28.8-5.2-43.1c-2.6-20.6-5.2-41.3-7.9-61.9
		c-0.9-6.7-3.6-8.9-10.3-9c-4.3-0.1-8.7-0.1-13,0c-8.5,0.1-11.7,3.2-11.7,11.9c0,52.5-0.2,105,0.2,157.4c0,6.2,2.1,13.1,5.3,18.3
		c10.5,17,22,33.3,33.3,49.8c0.9,1.3,3.1,2.4,4.7,2.5c5.5,0.3,11,0.1,16.5,0.1H353.4z M32.3,32.2v31.6C52.1,64.5,66,50.4,63.4,32.2
		H32.3z M479.6,63.7V32.4h-31.4C447.7,52,460.7,64.9,479.6,63.7 M32.3,208.3v31.4h31.5C64.3,219.9,51.7,207.3,32.3,208.3
		 M479.6,239.8v-31.6c-20-0.5-34.2,14.2-31,31.6H479.6z M191.9,320.1c-9,0-17.6-0.1-26.2,0.1c-4.1,0.1-5.6,3-5.7,6.8
		c0,3.7-0.2,8.3,4.6,8.6c9,0.6,18.1,0.2,27.3,0.2V320.1z M191.8,367.8c-5.3,1-11.4-2.3-14.6,3.2c-1.5,2.6-1.4,7.8,0.2,10.3
		c3.4,5.1,9.3,2,14.4,2.7V367.8z"/>
</g>
</svg>
