<?xml version="1.0" encoding="utf-8"?>
<!-- Generator: Adobe Illustrator 19.0.1, SVG Export Plug-In . SVG Version: 6.00 Build 0)  -->
<svg version="1.1" id="Layer_1" xmlns="http://www.w3.org/2000/svg" xmlns:xlink="http://www.w3.org/1999/xlink" x="0px" y="0px"
	 viewBox="0 0 502.7 394" enable-background="new 0 0 502.7 394" xml:space="preserve">
<g>
	<defs>
		<rect id="SVGID_1_" width="502.7" height="394"/>
	</defs>
	<clipPath id="SVGID_2_">
		<use xlink:href="#SVGID_1_"  overflow="visible"/>
	</clipPath>
	<path clip-path="url(#SVGID_2_)" fill="#1B2A39" d="M502.4,295.5c-0.7-3.9-1.6-7.8-2.3-11.8c-4.9-26.2-9.8-52.3-14.5-78.5
		c-2.3-12.5-9.5-17.9-22.3-15.9c-15.5,2.4-28-5.1-33.2-19.9c-5.9-17.1-0.8-32.5,13-39.7c3.6-1.9,7.4-2.9,11.3-3.8
		c8.1-1.9,13.1-8.5,12.5-16.8c-0.3-3.5-1.1-6.9-1.7-10.3c-5.1-28.1-11.1-56.1-15.6-84.4c-1.4-8.5-8.3-14.6-16.5-14.4
		c-3,0.1-5.9,0.7-8.9,1.3c-68,12.9-136,25.8-203.9,38.6c-69,13-137.9,26-206.9,39.1C4.1,80.7-1.4,88.7,0.3,98
		c5.8,31.1,11.6,62.1,17.5,93.2c1.8,9.4,8.7,14.6,18.3,13.7c2.8-0.2,5.6-0.7,7-0.9c21.7,0,36,20,31.1,41.2
		c-3.1,13.4-12.7,19.6-25.2,22.5c-9.6,2.2-14.9,9.7-13.1,19.1c5.8,31.2,11.8,62.4,17.8,93.6c1.8,9.4,9.9,14.8,19.2,13.1
		c39.4-7.4,78.8-15,118.1-22.4c53.3-10.1,106.5-20.2,159.8-30.2c46.1-8.7,92.2-17.4,138.3-26.1C498.7,313.1,504.2,305,502.4,295.5
		 M464.7,287c-25.5,4.7-51,9.5-76.5,14.4c-2.3,0.4-3.1,0.2-3.7-2.3c-2.3-9.8-9.8-14.9-19-13.2c-8.5,1.6-13.8,9.5-12.2,19.2
		c0.6,3.4-1.5,3.2-3.3,3.5c-18.1,3.5-36.3,6.8-54.4,10.3c-52.1,9.8-104.2,19.7-156.4,29.5c-18,3.4-35.9,6.8-53.9,10.3
		c-2.5,0.5-3.4-0.1-3.9-2.8c-3.5-19.5-7.2-38.9-11-58.3c-0.6-2.8,0.1-4,2.5-5.5c18.6-11.5,29.9-28.1,33-49.8
		c3-21.7-5.7-39-21.6-53.1c-9.8-8.7-21.4-14-34.3-16.1c-2.4-0.4-3.2-1.2-3.7-3.5c-3.6-19.8-7.4-39.6-11.3-59.3
		c-0.5-2.6,0.5-3,2.7-3.5c44.1-8.3,88.2-16.6,132.4-24.9c43.1-8.1,86.3-16.3,129.4-24.5c6.8-1.3,6.7-1.4,8,5.4
		c0.6,3.4,1.1,6.9,2,10.3c2.2,8.1,9.9,13,17.9,11.6c7.8-1.3,13.5-8.2,13.3-17.7c-0.7-3.7-1.5-8.8-2.6-13.8c-0.5-2.3-0.3-3.1,2.3-3.6
		c25.7-4.8,51.3-9.7,76.9-14.6c2.6-0.5,3.4,0.4,3.8,2.9c3.7,19.8,7.4,39.5,11.3,59.3c0.5,2.8-1.2,3.4-2.8,4.4
		c-17,10.5-27.8,25.5-32.1,45c-5.7,26.3,7.2,52.1,32.7,66.3c7,3.9,14.5,6.7,22.5,7.7c2.6,0.4,3.3,1.6,3.7,3.7
		c3.7,19.6,7.4,39.2,11.1,58.8C468,285.6,467.4,286.6,464.7,287"/>
	<path clip-path="url(#SVGID_2_)" fill="#1B2A39" d="M138.2,198.7c0.1-6.1,1-12,2.9-17.7c9.8-29.3,36.2-41.4,65.4-29.6
		c2.7,1.1,4.1,0.9,6.3-1.1c13.9-12.5,29.7-19.8,48.4-13c19.8,7.2,31.5,22.2,35.4,42.9c2.5,13.6-0.8,26.5-6.4,38.8
		c-11.2,24.4-28.8,43.7-48.9,61c-4.1,3.5-9.2,4.2-14.1,2.5c-22.6-7.9-43.9-18.2-62.2-33.9c-12.6-10.8-22.6-23.5-25.8-40.4
		C138.7,205,138.6,201.8,138.2,198.7"/>
	<path clip-path="url(#SVGID_2_)" fill="#1B2A39" d="M329.7,181c0.1-9.9,5.7-16.5,13.5-17.8c7.3-1.3,15.4,3,17.4,10.2
		c2.2,8,3.8,16.2,4.6,24.4c0.8,7.7-5.4,14.3-13.1,15.9c-7.2,1.4-15.4-2.7-17.5-10C332.2,195.6,331,187.2,329.7,181"/>
	<path clip-path="url(#SVGID_2_)" fill="#1B2A39" d="M341.6,243.5c0-9.3,5.5-16,13.1-17.4c7.5-1.4,15.7,3,17.8,10.4
		c1.9,6.7,3.2,13.6,4,20.5c0.8,7.7-4.9,14.5-12.6,16.2c-7.7,1.7-15.2-2.3-18.1-9.7c-0.5-1.4-0.8-2.9-1.1-4.3
		C343.5,253.5,342.4,247.8,341.6,243.5"/>
	<path clip-path="url(#SVGID_2_)" fill="#1B2A39" d="M352.8,130c-0.2,10.1-6.1,16.7-14.1,17.8c-7.3,1-15-3.6-17-10.9
		c-1.8-6.6-3.1-13.3-3.8-20c-0.8-7.9,5-14.8,13-16.5c7.2-1.5,15.4,2.5,17.6,9.8C350.7,117.3,351.7,124.7,352.8,130"/>
	<path clip-path="url(#SVGID_2_)" fill="#FF2A2A" d="M265.6,190c-0.4,6.9-2.4,13.4-5.5,19.5c-7.4,14.6-18.4,26.4-30,37.7
		c-1.2,1.2-2.3,1.5-3.9,0.8c-16.4-7-32.5-14.6-45.2-27.6c-6.1-6.2-10-13.6-11-22.4c-0.9-8.3,1.6-13.7,8.4-17.6
		c7.3-4.2,12.9-3.7,19.7,1.7c1.9,1.6,3.7,3.4,5.6,5c8.1,7.1,20,4.9,25-4.6c1.2-2.3,2.3-4.8,3.6-7.1c3.8-7,9.6-9.6,17.5-8.5
		c7.5,1,11.9,5.3,13.9,12.4C264.7,182.8,265.6,186.4,265.6,190"/>
</g>
</svg>
