<svg xmlns="http://www.w3.org/2000/svg" width="12" height="14.97" viewBox="0 0 12 14.97">
  <defs>
    <style>
      .cls-1 {
        fill: #ee2e24;
        fill-rule: evenodd;
      }
    </style>
  </defs>
  <path id="adress" class="cls-1" d="M1328.09,4721.97a9.147,9.147,0,0,1-1,1.4c-1.34,1.52-2.7,3.01-4.17,4.63a68.766,68.766,0,0,1-4.96-6.02,5.776,5.776,0,0,1,3.95-8.87,5.673,5.673,0,0,1,6.01,2.49A5.6,5.6,0,0,1,1328.09,4721.97Zm-1.57-6.25a4.838,4.838,0,0,0-5.65-1.04,4.625,4.625,0,0,0-1.85,6.81c1.15,1.69,2.58,3.18,3.92,4.81,1.06-1.19,2.02-2.28,2.97-3.36,0.19-.21.37-0.42,0.54-0.65,0.22-.3.43-0.6,0.62-0.92A4.666,4.666,0,0,0,1326.52,4715.72Zm-3.51,4.87a1.637,1.637,0,0,1-1.63-1.63,1.615,1.615,0,0,1,3.23-.03A1.644,1.644,0,0,1,1323.01,4720.59Z" transform="translate(-1317 -4713.03)"/>
</svg>
