<svg xmlns="http://www.w3.org/2000/svg" width="47" height="60" viewBox="0 0 47 60">
  <defs>
    <style>
      .cls-1 {
        fill: #ee2e24;
        fill-rule: evenodd;
      }
    </style>
  </defs>
  <path id="geo_map" class="cls-1" d="M960.2,724c-6.682-8.154-13.948-15.516-19.447-24.068a23.219,23.219,0,0,1,15.485-35.483c9.769-1.738,17.9,1.6,23.549,9.952,5.549,8.2,5.481,16.879.644,25.476a34.5,34.5,0,0,1-3.916,5.6C971.279,711.54,965.936,717.5,960.2,724Zm0.08-6.819c4.125-4.761,7.88-9.086,11.624-13.421,0.725-.839,1.447-1.686,2.094-2.586,0.863-1.2,1.719-2.419,2.46-3.7a18.931,18.931,0,0,0-2.183-22.607,18.735,18.735,0,0,0-29.366,23.106C949.4,704.709,955,710.67,960.277,717.18Zm6.516-29.448a6.325,6.325,0,1,1-6.285-6.394A6.464,6.464,0,0,1,966.793,687.732Z" transform="translate(-937 -664)"/>
</svg>
