<svg xmlns="http://www.w3.org/2000/svg" width="68" height="115" viewBox="0 0 68 115">
  <defs>
    <style>
      .cls-1 {
        fill: #ee2e24;
        fill-rule: evenodd;
      }
    </style>
  </defs>
  <path id="mark" class="cls-1" d="M1112.76,1666.35l-1.91,4.08a9.93,9.93,0,0,0,4.31,2.85,2.444,2.444,0,0,0,2.76-.97h0a15.615,15.615,0,0,1-2.09-1.67c1.49,0.17,10.01-.5,10.01-0.5l2.05,5.65-6.47,6.22-6.57-3.44a2.908,2.908,0,0,0-3.49.61l-0.12.12,14.6,13.15v31.08l6.73-7v-40.98l-2.7-6.06,1.54-3.14h-18.65Zm9.24,38.08v-9.91l-10.8-11.03a18.149,18.149,0,0,1-3.87,1.5c-1.26-.01-5.6-2.55-5.23-3.95,0.86-3.22,2.79-8.55,2.79-8.55l-3.53-6.14H1091.2s-0.86,2.46.93,3.5,6.92,0.91,6.92.91l1.48,2.79s-1.89,5.57-5.73,7.12c-1.64-.85-7.81-5.99-7.81-5.99l1.58-8.33h-5.6l1.11,3.14-2.56,6.02v41.02l6.67,6.92v-31l8.49-7.75,2.63,2-7.26,7.82v9.91l11.41-13h7.06Zm1.39-45.14a1.783,1.783,0,0,0-1.66,1.66v2.98a4.029,4.029,0,0,0,3.33,0v-2.98A1.77,1.77,0,0,0,1123.39,1659.29Zm6.44,0a1.793,1.793,0,0,0-1.67,1.66v2.98a4.028,4.028,0,0,0,3.33,0v-2.98A1.76,1.76,0,0,0,1129.83,1659.29Zm-12.87,0a1.793,1.793,0,0,0-1.67,1.66v2.98a4.028,4.028,0,0,0,3.33,0v-2.98A1.768,1.768,0,0,0,1116.96,1659.29Zm-6.44,0a1.793,1.793,0,0,0-1.67,1.66v2.98a4.028,4.028,0,0,0,3.33,0v-2.98A1.76,1.76,0,0,0,1110.52,1659.29Zm-6.44,0a1.783,1.783,0,0,0-1.66,1.66v2.98a4.029,4.029,0,0,0,3.33,0v-2.98A1.77,1.77,0,0,0,1104.08,1659.29Zm-6.44,0a1.792,1.792,0,0,0-1.66,1.66v2.98a4.028,4.028,0,0,0,3.33,0v-2.98A1.77,1.77,0,0,0,1097.64,1659.29Zm-6.43,0a1.793,1.793,0,0,0-1.67,1.66v2.98a4.028,4.028,0,0,0,3.33,0v-2.98A1.76,1.76,0,0,0,1091.21,1659.29Zm-6.44,0a1.783,1.783,0,0,0-1.66,1.66v2.98a4.029,4.029,0,0,0,3.33,0v-2.98A1.77,1.77,0,0,0,1084.77,1659.29Zm38.59-20.78v12.32l-5.1-3.14v-13.06l-8.71-6.63v17.96h-5.1V1628l-8.71,6.63v13.06l-5.1,3.14v-12.32l-8.13,6.2v13.22h48.98v-13.22ZM1107,1727.43l4.02-4.36,0.01-25.83h-8.06v25.8Zm8.28-25.32v22.96l-8.26,9.02-8.28-9.02v-22.68l-6.7,7.97v17.1l14.97,15.54v-0.01l14.98-15.48v-17.85Zm-37.19,2.43v-21.71l-5.09,9.91v15.12l5.09,5.23v-8.55Zm57.91-21.67v30.16l5-5.17v-15.12Z" transform="translate(-1073 -1628)"/>
</svg>
