<svg xmlns="http://www.w3.org/2000/svg" width="14" height="13.969" viewBox="0 0 14 13.969">
  <defs>
    <style>
      .cls-1 {
        fill: #fff;
        fill-rule: evenodd;
      }
    </style>
  </defs>
  <path id="phone_icon" class="cls-1" d="M1638,86.867c-0.17,1.007-.31,1.953-0.49,2.894a0.435,0.435,0,0,1-.33.217,10.157,10.157,0,0,1-4.41-.674,13.167,13.167,0,0,1-8.58-9.99,18.449,18.449,0,0,1-.19-2.476,0.335,0.335,0,0,1,.35-0.412c0.82-.111,1.64-0.266,2.46-0.4,0.08-.014.17-0.014,0.29-0.024,0.04,0.113.09,0.227,0.12,0.345,0.27,0.921.49,1.858,0.81,2.758a1.872,1.872,0,0,1-.41,2.021,0.591,0.591,0,0,0-.12.726,8.892,8.892,0,0,0,4.63,4.619,0.582,0.582,0,0,0,.72-0.107,1.88,1.88,0,0,1,2.02-.408C1635.88,86.308,1636.92,86.558,1638,86.867Z" transform="translate(-1624 -76)"/>
</svg>
