<svg xmlns="http://www.w3.org/2000/svg" width="23" height="23" viewBox="0 0 23 23">
  <defs>
    <style>
      .cls-1 {
        fill: #ff2a2a;
        fill-rule: evenodd;
      }
    </style>
  </defs>
  <path id="_1" data-name="1" class="cls-1" d="M435.469,561.547a0.491,0.491,0,0,0-.388.588q0.007,8.709,0,17.418c0,0.2,0,.395,0,0.593a1.757,1.757,0,0,1-1.882,1.835c-1.538.029-3.077,0.011-4.615,0.012q-5.117,0-10.232,0c-1.615,0-2.243-.617-2.243-2.2q0-8.682,0-17.364v-0.677c-1.954-.734-2.3-1.205-2.029-2.753H436.9A1.864,1.864,0,0,1,435.469,561.547Zm-2.329.248H418.046v18.323H433.14V561.795Zm-0.916,17.417H418.97v-9.155h13.254v9.155Z" transform="translate(-414 -559)"/>
</svg>
