<svg xmlns="http://www.w3.org/2000/svg" width="21" height="24" viewBox="0 0 21 24">
  <defs>
    <style>
      .cls-1 {
        fill: #ff2a2a;
        fill-rule: evenodd;
      }
    </style>
  </defs>
  <path id="_2" data-name="2" class="cls-1" d="M826,560.337c-0.71-.157-1.364-0.328-2.028-0.442a9.271,9.271,0,0,0-4.287.466,31.519,31.519,0,0,1-3.259.872,8.626,8.626,0,0,1-4.172-.548,28.17,28.17,0,0,0-2.865-.77,7.8,7.8,0,0,0-3.891.325c-0.129.041-.26,0.073-0.485,0.135,0-.551-0.024-1.037.017-1.518a0.568,0.568,0,0,1,.346-0.346,8.5,8.5,0,0,1,5.53-.049c0.637,0.2,1.275.387,1.906,0.6a8.9,8.9,0,0,0,5.876-.142,24.215,24.215,0,0,1,3.215-.825,7.746,7.746,0,0,1,3.733.391A0.441,0.441,0,0,1,826,559C825.981,559.436,826,559.87,826,560.337Zm-14.541,13.3v-4.823l0.2-.1,6.208,4.922v-4.808l0.2-.112,5,3.939c0.046-1.354.089-2.6,0.131-3.85,0.064-1.917.141-3.834,0.18-5.751a0.57,0.57,0,0,1,.707-0.68,10.528,10.528,0,0,0,1.281,0,0.524,0.524,0,0,1,.627.647c-0.013,2.232,0,4.464,0,6.7q0.006,5.832.01,11.666V582H805.082V568.815l0.156-.105Z" transform="translate(-805 -558)"/>
</svg>
