<svg xmlns="http://www.w3.org/2000/svg" width="27" height="20" viewBox="0 0 27 20">
  <defs>
    <style>
      .cls-1 {
        fill: #ff2a2a;
        fill-rule: evenodd;
      }
    </style>
  </defs>
  <path id="_3" data-name="3" class="cls-1" d="M1218.94,577.257a0.753,0.753,0,0,1-.46.142c-0.4.021-.8,0.007-1.25,0.007v0.553a1.8,1.8,0,0,1-1.61,2.029,1.822,1.822,0,0,1-2.03-1.686h-0.8c-0.44,1.291-1.04,1.8-2.06,1.669a1.988,1.988,0,0,1-1.02-.454,2.043,2.043,0,0,1-.55-0.953,5.122,5.122,0,0,1-.08-1.127h-7.16c0,0.291.02,0.558,0,.824a1.765,1.765,0,0,1-1.61,1.726,1.744,1.744,0,0,1-1.96-1.4c-0.15-.615-0.58-0.208-0.86-0.319-0.44,1.309-1.06,1.813-2.08,1.717a1.535,1.535,0,0,1-1.37-.9,9.819,9.819,0,0,1-.35-1.686c-0.37,0-.81,0-1.24,0a0.379,0.379,0,0,1-.45-0.43c0.03-1.518-.22-1.3,1.27-1.3q12.45-.011,24.9,0a1.38,1.38,0,0,1,.79.178A5.49,5.49,0,0,1,1218.94,577.257Zm-1.65-3.329q-11.8,0-23.6,0c-0.72,0-.78-0.061-0.78-0.76-0.01-4.128,0-8.255,0-12.382,0-.738.05-0.784,0.81-0.784q5.91,0,11.82,0h11.77c0.76,0,.81.042,0.81,0.78v12.332C1218.12,573.883,1218.07,573.928,1217.29,573.928Zm-18.09-9.1a0.428,0.428,0,0,0-.49-0.459c-0.44,0-.88,0-1.32,0v0h-0.69c-1.12,0-1.13.021-1.1,1.108a0.552,0.552,0,0,0,.67.63c0.58-.014,1.16,0,1.74,0C1199.27,566.1,1199.3,566.052,1199.2,564.826Zm5.4,0.017a0.442,0.442,0,0,0-.52-0.479c-0.69.008-1.37,0-2.06,0-1.01,0-1.05.039-1.02,1.04a0.638,0.638,0,0,0,.02.249,1.149,1.149,0,0,0,.48.418,9.37,9.37,0,0,0,1.31.019v0.01h0.63C1204.66,566.092,1204.7,566.035,1204.6,564.843Zm5.42,0.023a0.262,0.262,0,0,0-.02-0.1,1.119,1.119,0,0,0-.44-0.377,10.74,10.74,0,0,0-1.32-.019v-0.006h-0.68c-1.2,0-1.2.017-1.14,1.167a0.517,0.517,0,0,0,.62.568c0.61-.008,1.23,0,1.84,0C1210.03,566.1,1210.14,565.981,1210.02,564.866Zm5.4-.019a0.084,0.084,0,0,0,0-.05,1.284,1.284,0,0,0-.48-0.409,9.686,9.686,0,0,0-1.31-.019v-0.006h-0.69c-1.15,0-1.14,0-1.12,1.137a0.53,0.53,0,0,0,.64.6c0.6-.007,1.2,0,1.79,0C1215.46,566.1,1215.54,566.006,1215.42,564.847Z" transform="translate(-1192 -560)"/>
</svg>
