<?xml version="1.0" standalone="no"?>
<!DOCTYPE svg PUBLIC "-//W3C//DTD SVG 20010904//EN"
 "http://www.w3.org/TR/2001/REC-SVG-20010904/DTD/svg10.dtd">
<svg version="1.0" xmlns="http://www.w3.org/2000/svg"
 width="144.000000pt" height="144.000000pt" viewBox="0 0 144.000000 144.000000"
 preserveAspectRatio="xMidYMid meet">
<metadata>
Created by potrace 1.11, written by Peter Selinger 2001-2013
</metadata>
<g transform="translate(0.000000,144.000000) scale(0.100000,-0.100000)"
fill="#000000" stroke="none">
<path d="M652 1268 c-43 -33 -46 -42 -44 -133 1 -21 -5 -35 -20 -44 -27 -17
-35 -4 -32 54 1 25 -1 45 -4 45 -4 0 -23 -14 -42 -29 -33 -28 -35 -32 -35 -95
l-1 -66 246 0 246 0 -1 66 c0 63 -2 67 -35 95 -19 15 -38 29 -42 29 -4 0 -6
-23 -4 -50 3 -57 -4 -67 -33 -49 -15 10 -19 25 -20 78 -1 63 -2 67 -38 97 -46
39 -50 32 -48 -74 1 -73 1 -73 -25 -70 -25 3 -25 4 -25 91 0 48 0 87 0 87 -1
0 -20 -14 -43 -32z"/>
<path d="M493 983 c-20 -7 -16 -43 5 -43 12 0 18 7 17 20 -2 24 -6 29 -22 23z"/>
<path d="M547 971 c-6 -22 0 -31 20 -31 9 0 13 8 11 22 -4 28 -24 34 -31 9z"/>
<path d="M617 983 c-4 -3 -7 -15 -7 -25 0 -21 25 -24 33 -4 6 16 -16 40 -26
29z"/>
<path d="M675 970 c-4 -11 -4 -24 0 -29 9 -15 35 -1 35 19 0 26 -28 33 -35 10z"/>
<path d="M746 983 c-12 -12 -6 -43 9 -43 8 0 15 9 15 19 0 21 -13 34 -24 24z"/>
<path d="M813 983 c-7 -3 -13 -13 -13 -24 0 -26 35 -25 37 1 2 22 -6 29 -24
23z"/>
<path d="M871 972 c-11 -21 -6 -32 16 -32 15 0 18 36 4 45 -6 3 -15 -3 -20
-13z"/>
<path d="M937 983 c-15 -14 -7 -43 12 -43 13 0 18 6 16 18 -2 9 -4 20 -4 25
-1 9 -15 9 -24 0z"/>
<path d="M485 902 c3 -8 -1 -33 -8 -55 -10 -30 -13 -99 -13 -239 l2 -197 32
-32 32 -31 1 146 c1 80 2 150 3 156 1 11 77 80 88 80 22 0 15 -25 -16 -58 -31
-32 -36 -43 -36 -87 l0 -50 60 67 c56 61 64 67 96 64 21 -3 42 -13 53 -27 11
-13 35 -42 55 -64 l36 -40 0 50 c0 48 -3 54 -53 103 -44 44 -58 52 -79 47 -16
-4 -32 0 -46 12 -21 17 -21 20 -8 64 13 42 13 48 -6 77 -17 28 -24 30 -69 29
-32 0 -49 -5 -49 -14 0 -16 37 -36 55 -30 16 7 35 -12 35 -33 0 -20 -36 -60
-53 -60 -7 0 -26 13 -44 28 -30 25 -31 30 -24 70 8 42 8 42 -21 40 -20 -2 -27
-7 -23 -16z"/>
<path d="M769 898 c-7 -14 -7 -23 2 -34 14 -18 60 -19 54 -1 -4 8 8 12 40 13
39 1 45 -2 53 -25 8 -22 5 -31 -20 -58 l-30 -31 -45 19 c-53 23 -53 23 -52 7
0 -7 31 -40 70 -73 l69 -59 0 -155 0 -155 33 32 33 32 -1 212 c-1 152 -4 220
-13 236 -7 12 -10 31 -7 41 5 17 -1 19 -85 19 -79 0 -92 -3 -101 -20z"/>
<path d="M402 695 c-17 -34 -22 -64 -22 -120 0 -65 3 -77 25 -101 l25 -27 0
147 c0 80 -1 146 -3 146 -2 0 -13 -20 -25 -45z"/>
<path d="M1010 595 l0 -146 25 25 c22 22 25 33 25 102 0 58 -5 88 -21 121 -11
24 -23 43 -25 43 -2 0 -4 -65 -4 -145z"/>
<path d="M680 476 c0 -120 2 -135 20 -151 19 -17 21 -17 40 0 18 16 20 31 20
150 l0 133 -40 0 -40 1 0 -133z"/>
<path d="M601 513 c-29 -35 -31 -42 -31 -123 l0 -85 76 -78 76 -77 74 77 73
78 0 90 c1 85 -1 92 -28 123 -16 17 -31 32 -33 32 -3 0 -5 -49 -5 -109 l1
-109 -42 -46 -41 -45 -41 42 c-23 25 -40 52 -41 67 0 14 -1 64 -1 113 0 48 -2
87 -4 87 -1 0 -16 -17 -33 -37z"/>
</g>
</svg>
