<svg xmlns="http://www.w3.org/2000/svg" width="16" height="12" viewBox="0 0 16 12">
  <defs>
    <style>
      .cls-1 {
        fill: #1b2a39;
        fill-rule: evenodd;
      }
    </style>
  </defs>
  <path id="mail" class="cls-1" d="M407.352,4399.19c-2.37,1.62-4.713,3.29-7.061,4.94a0.413,0.413,0,0,1-.575.02q-3.677-2.595-7.374-5.17a0.682,0.682,0,0,1-.342-0.63c0.01-1.31.04-1.35,1.332-1.35h13.687c0.782,0,.917.18,0.975,0.97A1.209,1.209,0,0,1,407.352,4399.19Zm-14.858,1.62c2.395,1.68,4.793,3.35,7.181,5.04a0.458,0.458,0,0,0,.642,0c2.389-1.69,4.787-3.36,7.182-5.05,0.133-.09.27-0.18,0.453-0.3,0.013,0.18.027,0.29,0.027,0.4,0,2.38,0,4.77,0,7.15,0,0.67-.138.89-0.675,0.94h-14.1V4409h-0.3a0.724,0.724,0,0,1-.893-0.88q0-3.585,0-7.19c0-.12.014-0.24,0.027-0.43C392.223,4400.62,392.36,4400.71,392.494,4400.81Z" transform="translate(-392 -4397)"/>
</svg>
