<svg xmlns="http://www.w3.org/2000/svg" width="14" height="13.97" viewBox="0 0 14 13.97">
  <defs>
    <style>
      .cls-1 {
        fill: #1b2a39;
        fill-rule: evenodd;
      }
    </style>
  </defs>
  <path id="phone" class="cls-1" d="M407,4363.87c-0.166,1-.313,1.95-0.489,2.89a0.443,0.443,0,0,1-.326.22,10.23,10.23,0,0,1-4.418-.68,13.165,13.165,0,0,1-8.578-9.99,17.627,17.627,0,0,1-.189-2.47,0.331,0.331,0,0,1,.352-0.41c0.821-.12,1.636-0.27,2.454-0.41,0.083-.01.169-0.01,0.294-0.02,0.041,0.11.091,0.23,0.125,0.34,0.266,0.92.486,1.86,0.807,2.76a1.865,1.865,0,0,1-.413,2.02,0.6,0.6,0,0,0-.115.73,8.9,8.9,0,0,0,4.626,4.62,0.589,0.589,0,0,0,.725-0.11,1.87,1.87,0,0,1,2.02-.41C404.881,4363.31,405.925,4363.56,407,4363.87Z" transform="translate(-393 -4353)"/>
</svg>
