<svg xmlns="http://www.w3.org/2000/svg" width="100" height="101" viewBox="0 0 100 101">
  <defs>
    <style>
      .cls-1 {
        fill: #fff;
        fill-rule: evenodd;
      }
    </style>
  </defs>
  <path id="icon" class="cls-1" d="M1189.04,4214.01c27.67,0.03,50.03,22.84,49.96,50.97-0.06,27.21-22.71,49.99-49.73,50.03-27.75.03-50.33-22.74-50.26-50.7C1139.08,4236.65,1161.64,4213.97,1189.04,4214.01Zm42.25,50.44c-0.13-23.6-18.97-42.68-42.18-42.68a42.711,42.711,0,0,0,.09,85.42C1212.42,4307.16,1231.41,4287.88,1231.29,4264.45Zm-49.87,19.45c-4.52-4.78-9.4-9.95-14.58-15.42,2.09-1.72,4.08-3.36,6.39-5.27,2.51,2.76,5.51,6.06,8.48,9.32,8.31-8.4,16.49-16.66,25-25.27,1.96,2.37,3.6,4.37,5.03,6.09C1201.93,4263.24,1191.77,4273.47,1181.42,4283.9Z" transform="translate(-1139 -4214)"/>
</svg>
